PathFileType	4	(x/y/z)	S10_PSF_T03
DataRate	CameraRate	NumFrames	NumMarkers	Units	OrigDataRate	OrigDataStartFrame	OrigNumFrames
240	240	5	51	mm	240	111	440
Frame#	Time	Sternum			R.Acromium			L.Acromium			Top.Head			R.ASIS			L.ASIS			R.PSIS			L.PSIS			R.Great.Tro			L.Great.Tro			R.Iliac.Crest			L.Iliac.Crest			V.Sacral			R.Thigh.Upper.Post			R.Thigh.Lower.Ant			R.Thigh.Lower.Post			R.Thigh.Upper.Ant			R.Knee.Lat			R.Knee.Med			R.Shank.Upper.Post			R.Shank.Lower.Ant			R.Shank.Lower.Post			R.Shank.Upper.Ant			R.Ankle.Lat			R.Ankle.Med			R.Heel.Upper			R.Heel.Med			R.Heel.Lat			R.Toe.Lat			R.Toe.Med			R.Toe.Tip			L.Thigh.Upper.Post			L.Thigh.Lower.Ant			L.Thigh.Lower.Post			L.Thigh.Upper.Ant			L.Knee.Lat			L.Knee.Med			L.Shank.Upper.Post			L.Shank.Lower.Ant			L.Shank.Lower.Post			L.Shank.Upper.Ant			L.Ankle.Lat			L.Ankle.Med			L.Heel.Upper			L.Heel.Med			L.Heel.Lat			L.Toe.Lat			L.Toe.Med			L.Toe.Tip			Cervical.Spine			Back			
		X1	Y1	Z1	X2	Y2	Z2	X3	Y3	Z3	X4	Y4	Z4	X5	Y5	Z5	X6	Y6	Z6	X7	Y7	Z7	X8	Y8	Z8	X9	Y9	Z9	X10	Y10	Z10	X11	Y11	Z11	X12	Y12	Z12	X13	Y13	Z13	X14	Y14	Z14	X15	Y15	Z15	X16	Y16	Z16	X17	Y17	Z17	X18	Y18	Z18	X19	Y19	Z19	X20	Y20	Z20	X21	Y21	Z21	X22	Y22	Z22	X23	Y23	Z23	X24	Y24	Z24	X25	Y25	Z25	X26	Y26	Z26	X27	Y27	Z27	X28	Y28	Z28	X29	Y29	Z29	X30	Y30	Z30	X31	Y31	Z31	X32	Y32	Z32	X33	Y33	Z33	X34	Y34	Z34	X35	Y35	Z35	X36	Y36	Z36	X37	Y37	Z37	X38	Y38	Z38	X39	Y39	Z39	X40	Y40	Z40	X41	Y41	Z41	X42	Y42	Z42	X43	Y43	Z43	X44	Y44	Z44	X45	Y45	Z45	X46	Y46	Z46	X47	Y47	Z47	X48	Y48	Z48	X49	Y49	Z49	X50	Y50	Z50	X51	Y51	Z51	

111	0.45833	-844.12	1277.6	293.37	-986.69	1425.1	435.48	-935.04	1469.5	140.65	-1005.8	1747.7	313.81	-904.07	1011	385.82	-896.74	1023.4	157.18	-1104.1	1026.2	292.72	-1095.7	1035.7	212.55	-967.31	933.25	458.07	-962.66	961.85	98.428	-1005.1	1088.8	426.82	-965.34	1099.6	128.86	-1120.8	997.4	255.89	-864.33	746.58	464.65	-779	702.01	429.24	-827.77	664.92	461.25	-815.05	786.15	427.48	-783.95	543.4	425.59	-772.64	548.74	298.98	-827.39	314.06	419.44	-753.74	260.23	419.7	-816.25	240.53	415.24	-759.39	336.75	423.52	-782.4	131.19	401.55	-756.17	147.2	326.63	-822.99	78.739	342.41	-805.32	55.446	316.4	-822.58	53.269	375.36	-664.2	59.17	454.08	-616.99	76.576	354.98	-572.2	99.082	407.16	-1051.3	699.92	105.78	-996.16	607.15	132.99	-1071.2	607.93	127.19	-972.06	691.77	111.7	-1058.6	513.34	139.29	-1052.3	512.51	268.89	-1151.1	311	146.56	-1100.1	215.1	171.03	-1158.6	234.69	161.45	-1092.1	290.48	156.07	-1152.9	109.51	181.2	-1138.4	121.59	268.94	-1221.7	80.683	228.98	-1213.1	47.667	260.27	-1217.1	53.259	196.05	-1042.1	42.6	156.2	-1014.1	43.771	265.92	-957.76	53.832	216.53	-1042.2	1496.4	283.97	-1125.5	1293.9	248.83
112	0.4625	-838.89	1276.4	293.73	-981.66	1424.1	435.76	-929.64	1468.4	141.02	-1000.6	1746.6	314.26	-898.77	1010	386.14	-891.84	1022.4	157.56	-1098.7	1025.2	293.05	-1090.6	1034.8	212.87	-962.27	932.02	458.38	-957.75	960.9	98.631	-999.77	1087.8	427.11	-959.79	1098.5	129.22	-1115.6	996.47	256.21	-860.5	744.53	464.66	-775.3	699.59	429.35	-824.46	662.68	461.02	-810.82	783.95	427.83	-779.88	541.7	425.08	-768.72	546.76	298.35	-817.24	311.56	420.16	-742.12	259.78	420.24	-804.07	238.35	416.18	-749.9	336.16	423.77	-767.03	129.78	402.87	-741.64	146.17	327.69	-806.46	75.879	344.23	-788.24	52.989	318.17	-805.14	50.625	377.27	-646.47	61.296	454.95	-600.36	79.487	355.42	-555.89	103.47	407.21	-1048.2	699.87	105.74	-994.03	606.57	132.91	-1068.7	608.06	126.96	-969.13	691.13	111.54	-1056.9	513.19	139.13	-1050.5	512.2	268.74	-1150.2	311.23	146.5	-1099.6	215.09	170.95	-1158	234.91	161.48	-1091.4	290.42	155.94	-1152.6	109.64	181.28	-1138.1	121.76	269.09	-1221.6	80.779	229.13	-1213.1	47.733	260.38	-1217.1	53.402	196.17	-1042.1	42.577	156.17	-1014.1	43.72	265.91	-957.77	53.657	216.53	-1037	1495.3	284.08	-1120.3	1292.8	248.89
113	0.46667	-833.65	1275.2	294.11	-976.61	1422.9	436.05	-924.24	1467.3	141.38	-995.41	1745.4	314.71	-893.46	1008.9	386.45	-886.79	1021.4	157.93	-1093.4	1024.2	293.39	-1085.6	1034	213.2	-957.22	930.72	458.7	-952.83	959.93	98.824	-994.4	1086.6	427.39	-954.18	1097.3	129.59	-1110.3	995.5	256.52	-856.7	742.41	464.7	-771.67	697.05	429.48	-821.22	660.34	460.83	-806.63	781.64	428.19	-775.86	539.95	424.57	-764.92	544.68	297.7	-807.22	309.19	420.87	-730.7	259.44	420.76	-792.07	236.33	417.1	-740.57	335.64	423.99	-751.9	128.61	404.16	-727.37	145.33	328.72	-790.19	73.296	346.06	-771.43	50.792	319.96	-787.93	48.29	379.21	-629.08	63.68	455.75	-584.12	82.561	355.77	-539.98	108	407.15	-1045	699.8	105.72	-991.81	605.97	132.85	-1066	608.18	126.74	-966.13	690.46	111.41	-1055.2	513.03	139	-1048.6	511.89	268.61	-1149.3	311.46	146.46	-1099.1	215.07	170.89	-1157.5	235.14	161.51	-1090.6	290.36	155.84	-1152.3	109.77	181.37	-1137.8	121.95	269.26	-1221.5	80.878	229.29	-1213	47.802	260.49	-1217	53.549	196.29	-1042.1	42.552	156.14	-1014	43.673	265.9	-957.77	53.486	216.54	-1031.7	1494.2	284.22	-1115	1291.7	248.98
114	0.47083	-828.39	1274	294.5	-971.53	1421.8	436.36	-918.84	1466.2	141.74	-990.22	1744.2	315.16	-888.13	1007.8	386.77	-881.62	1020.3	158.3	-1088	1023	293.73	-1080.6	1033.1	213.54	-952.15	929.37	459.01	-947.89	958.93	99.007	-989.03	1085.5	427.68	-948.51	1096.1	129.98	-1105	994.48	256.83	-852.93	740.21	464.77	-768.09	694.43	429.62	-818.03	657.93	460.68	-802.47	779.23	428.56	-771.89	538.15	424.09	-761.25	542.5	297.04	-797.33	306.94	421.57	-719.51	259.22	421.24	-780.25	234.48	418.01	-731.4	335.19	424.2	-737.02	127.66	405.42	-713.39	144.66	329.72	-774.21	70.983	347.89	-754.93	48.845	321.75	-771.01	46.252	381.15	-612.05	66.296	456.48	-568.29	85.769	356.04	-524.48	112.67	406.97	-1041.8	699.7	105.72	-989.47	605.37	132.81	-1063.2	608.3	126.53	-963.05	689.77	111.3	-1053.3	512.85	138.89	-1046.6	511.58	268.51	-1148.3	311.69	146.43	-1098.6	215.05	170.84	-1156.8	235.37	161.55	-1089.8	290.28	155.75	-1152	109.9	181.46	-1137.5	122.14	269.45	-1221.4	80.982	229.45	-1213	47.874	260.6	-1217	53.701	196.41	-1042.1	42.525	156.11	-1014	43.63	265.89	-957.77	53.318	216.53	-1026.5	1493.1	284.37	-1109.8	1290.5	249.09
115	0.475	-823.13	1272.7	294.89	-966.43	1420.6	436.68	-913.44	1464.9	142.09	-985.02	1743	315.6	-882.79	1006.6	387.08	-876.36	1019.2	158.66	-1082.7	1021.9	294.09	-1075.7	1032.1	213.89	-947.04	927.96	459.33	-942.93	957.91	99.18	-983.65	1084.3	427.97	-942.8	1094.8	130.39	-1099.8	993.41	257.14	-849.16	737.96	464.86	-764.54	691.72	429.77	-814.88	655.46	460.56	-798.32	776.76	428.93	-767.94	536.31	423.62	-757.7	540.25	296.39	-787.59	304.83	422.26	-708.55	259.11	421.69	-768.63	232.79	418.9	-722.41	334.81	424.4	-722.43	126.94	406.64	-699.72	144.17	330.68	-758.55	68.93	349.7	-738.77	47.136	323.52	-754.42	44.5	383.08	-595.43	69.112	457.14	-552.9	89.081	356.23	-509.42	117.42	406.68	-1038.5	699.58	105.75	-987.03	604.75	132.79	-1060.3	608.4	126.33	-959.89	689.06	111.22	-1051.4	512.65	138.82	-1044.4	511.24	268.43	-1147.2	311.93	146.41	-1098	215.01	170.81	-1156.1	235.61	161.6	-1088.8	290.19	155.68	-1151.7	110.04	181.55	-1137.1	122.36	269.65	-1221.3	81.093	229.61	-1212.9	47.949	260.72	-1216.9	53.858	196.53	-1042.1	42.496	156.08	-1013.9	43.59	265.89	-957.77	53.152	216.53	-1021.2	1491.9	284.55	-1104.5	1289.4	249.22
